<?xml version="1.0" encoding="UTF-8"?>
<svg version="1.1" xmlns="http://www.w3.org/2000/svg" width="652" height="595">
<path d="M0 0 C215.16 0 430.32 0 652 0 C652 196.35 652 392.7 652 595 C436.84 595 221.68 595 0 595 C0 398.65 0 202.3 0 0 Z " fill="#002545" transform="translate(0,0)"/>
<path d="M0 0 C1.31673203 -0.00412399 2.63346405 -0.00824799 3.99009705 -0.01249695 C5.45265402 -0.0018794 6.91520893 0.00902503 8.37776184 0.02018738 C9.91513045 0.02103343 11.45250026 0.02055893 12.98986816 0.01885986 C17.16734901 0.01799764 21.34457247 0.03566001 25.5219934 0.05658174 C29.88620058 0.07531077 34.25041338 0.07709599 38.61465454 0.08065796 C46.88069843 0.08998954 55.14662357 0.11461834 63.41261512 0.14470643 C72.82240427 0.17821585 82.23219904 0.19472774 91.64203298 0.20979273 C111.00038042 0.24116695 130.35861725 0.29394904 149.71687317 0.36076355 C149.72273941 1.1241806 149.72860565 1.88759766 149.73464966 2.67414856 C149.79265427 9.88340838 149.86477488 17.09232564 149.95258808 24.30127907 C149.9972359 28.00712008 150.03650394 31.71285258 150.06330872 35.41886902 C150.08939806 38.99821088 150.1298392 42.57713391 150.18005943 46.15621567 C150.19669032 47.51883594 150.2082281 48.8815286 150.21448708 50.24423599 C150.22416847 52.15901006 150.25395855 54.07365 150.28450012 55.98820496 C150.29560318 57.07630463 150.30670624 58.1644043 150.31814575 59.28547668 C150.89072502 63.7016403 152.38737805 67.11704231 155.65437317 70.17326355 C159.23273329 72.2335315 162.58904816 72.49247805 166.66902161 72.56608582 C168.16054749 72.59635864 168.16054749 72.59635864 169.6822052 72.62724304 C171.23850647 72.65195679 171.23850647 72.65195679 172.82624817 72.6771698 C173.7854718 72.69582092 174.74469543 72.71447205 175.73298645 72.73368835 C179.31085638 72.80190686 182.88887558 72.86210608 186.46687317 72.92326355 C198.47062317 73.13982605 198.47062317 73.13982605 210.71687317 73.36076355 C210.71687317 96.13076355 210.71687317 118.90076355 210.71687317 142.36076355 C188.15437317 142.61076355 188.15437317 142.61076355 181.07014465 142.65861511 C179.20106059 142.68800099 177.33199841 142.71882966 175.46296692 142.75138855 C174.02685059 142.75308044 174.02685059 142.75308044 172.5617218 142.75480652 C166.43645341 142.88491195 162.73316125 143.77794057 157.71687317 147.36076355 C154.73681893 151.45216398 155.06465119 156.51231824 155.71687317 161.36076355 C157.76794905 164.75564777 159.42171938 166.16399436 162.71687317 168.36076355 C165.52509831 168.6724362 165.52509831 168.6724362 168.74543762 168.63542175 C169.98715225 168.64495377 171.22886688 168.65448578 172.50820923 168.66430664 C173.86552458 168.66404515 175.22283994 168.66310781 176.58015442 168.6615448 C177.9739698 168.6654329 179.36778401 168.6697678 180.76159668 168.67453003 C183.68447202 168.68199286 186.60722658 168.68170137 189.53010559 168.67643738 C193.26592415 168.67065438 197.00124505 168.6875445 200.73698139 168.71078205 C203.61700303 168.72555726 206.49690602 168.72638578 209.37695885 168.72327232 C210.75359772 168.72378403 212.13024349 168.72899338 213.50684547 168.73908424 C215.43789983 168.751498 217.3690548 168.74269158 219.30012512 168.733078 C220.39694107 168.73370743 221.49375702 168.73433685 222.62380981 168.73498535 C227.65415098 168.12637728 230.64193568 166.53540343 234.05952454 162.80082703 C236.28383025 158.18396327 236.27841787 154.38123627 236.23445129 149.31974792 C236.24146057 148.32389175 236.24846985 147.32803558 236.25569153 146.30200195 C236.2732569 143.01921986 236.26165345 139.73730399 236.24812317 136.45451355 C236.25081849 134.16817561 236.25470124 131.88183878 236.25971985 129.59550476 C236.26561295 124.80734833 236.25705767 120.01949068 236.23835754 115.23136902 C236.21556851 109.09776272 236.22869255 102.96485656 236.2526474 96.83127594 C236.26711022 92.11117795 236.26249707 87.3912456 236.25213623 82.67114258 C236.2494703 80.40973833 236.25273396 78.14831898 236.26205444 75.88693237 C236.27222759 72.72481013 236.25670712 69.56381742 236.23445129 66.40177917 C236.24254822 65.46965103 236.25064514 64.53752289 236.25898743 63.57714844 C236.1866358 58.02064033 235.48813536 54.73098463 231.71687317 50.36076355 C228.41833078 48.16173529 227.35266861 48.09666562 223.51106262 48.04191589 C222.45018936 48.0220462 221.3893161 48.00217651 220.29629517 47.98170471 C218.5805555 47.9643779 218.5805555 47.9643779 216.83015442 47.94670105 C215.65800888 47.9273349 214.48586334 47.90796875 213.27819824 47.88801575 C209.52866427 47.82816158 205.77909969 47.78181072 202.02937317 47.73576355 C199.48964612 47.69758919 196.9499321 47.65853779 194.41023254 47.61857605 C188.1791799 47.5208021 181.9482686 47.44127801 175.71687317 47.36076355 C175.71687317 31.85076355 175.71687317 16.34076355 175.71687317 0.36076355 C209.04687317 0.36076355 242.37687317 0.36076355 276.71687317 0.36076355 C276.75425598 8.66490417 276.79163879 16.9690448 276.83015442 25.52482605 C276.86427833 31.4527594 276.90026716 37.38065841 276.93895054 43.30856133 C276.98881669 50.98821632 277.03427793 58.66781489 277.06330872 66.34757996 C277.08876631 73.07797886 277.12968646 79.80812118 277.18005943 86.5383873 C277.19675109 89.10678165 277.20825101 91.67521514 277.21448708 94.24365616 C277.22410279 97.83973681 277.25213339 101.43523588 277.28450012 105.03117371 C277.28234749 106.62584473 277.28234749 106.62584473 277.28015137 108.25273132 C277.34928358 113.6798596 277.57713956 117.71452257 280.71687317 122.36076355 C285.98081687 126.27497809 290.85574124 126.5140178 297.23933411 126.56608582 C298.36674767 126.58093521 298.36674767 126.58093521 299.51693726 126.59608459 C301.99500913 126.62760821 304.47310015 126.65242078 306.95124817 126.6771698 C308.67189525 126.69774722 310.39253737 126.71874391 312.11317444 126.74014282 C316.63734409 126.79528206 321.16155874 126.84472722 325.68580627 126.89299011 C330.30427547 126.94326468 334.92267947 126.99891964 339.54109192 127.05412292 C348.59962995 127.16160482 357.65822464 127.26307187 366.71687317 127.36076355 C366.7205188 128.04679153 366.72416443 128.73281952 366.72792053 129.43963623 C366.76980217 136.59410714 366.83918844 143.74793994 366.9243927 150.90202332 C366.95477555 153.57044765 366.97380399 156.23826642 366.98786926 158.90690613 C367.00932868 162.74742637 367.05599852 166.58694918 367.10749817 170.4271698 C367.10934113 172.21037376 367.10934113 172.21037376 367.11122131 174.02960205 C367.22780745 180.65533248 367.66751052 185.01370877 371.71687317 190.36076355 C375.57270936 192.7576347 379.25455275 192.75219517 383.71687317 192.36076355 C387.30089065 191.12014211 389.15760629 190.15024822 391.35676575 187.04582214 C393.3762513 181.57425243 393.19791409 176.31482031 393.22859192 170.52482605 C393.25354736 168.88260071 393.25354736 168.88260071 393.27900696 167.2071991 C393.33666181 163.1335809 393.3690228 159.05963635 393.40437317 154.98576355 C393.50749817 145.86951355 393.61062317 136.75326355 393.71687317 127.36076355 C416.81687317 127.36076355 439.91687317 127.36076355 463.71687317 127.36076355 C463.71687317 160.69076355 463.71687317 194.02076355 463.71687317 228.36076355 C430.09187317 228.54826355 430.09187317 228.54826355 419.49958801 228.56852722 C416.34887108 228.59842768 416.34887108 228.59842768 413.19822693 228.6348877 C411.80187909 228.64791156 410.40541924 228.65123798 409.00901794 228.64672852 C399.89243806 228.25312193 399.89243806 228.25312193 391.81306458 231.717453 C388.48617783 235.91267811 388.55956548 239.54899661 388.53987122 244.67448425 C388.53330002 245.41630951 388.52672882 246.15813477 388.5199585 246.92243958 C388.50024977 249.37714237 388.48856857 251.83178407 388.47859192 254.2865448 C388.47451639 255.12581198 388.47044086 255.96507915 388.46624184 256.82977867 C388.4453918 261.2716637 388.43108528 265.71351792 388.42170715 270.15544128 C388.4106427 274.73876381 388.3762396 279.32160085 388.33653545 283.90475178 C388.31036842 287.4332773 388.30201528 290.96168712 388.29842567 294.49030113 C388.29356021 296.1795651 388.28194731 297.86882392 388.26338768 299.55799294 C388.23899266 301.92533803 388.2399613 304.29142647 388.24690247 306.65885925 C388.23409241 307.35258133 388.22128235 308.04630341 388.20808411 308.76104736 C388.26099889 313.72805355 389.6456315 316.51496922 392.71687317 320.36076355 C395.7045564 322.70822894 398.93615507 322.78209894 402.68562317 322.6771698 C406.11289299 322.14330662 408.15525938 320.61742332 410.71687317 318.36076355 C412.59602378 314.63155856 412.9824341 311.52460422 413.03572083 307.37712097 C413.06552536 305.60585091 413.06552536 305.60585091 413.09593201 303.79879761 C413.10748322 302.53405106 413.11903442 301.2693045 413.13093567 299.9662323 C413.15030182 298.66374039 413.16966797 297.36124847 413.18962097 296.01928711 C413.24081835 292.56869005 413.28050993 289.11805411 413.31776428 285.6672821 C413.35788204 282.14118467 413.40883365 278.61524471 413.45906067 275.08927917 C413.55669191 268.1798346 413.63630537 261.27051252 413.71687317 254.36076355 C430.21687317 254.36076355 446.71687317 254.36076355 463.71687317 254.36076355 C463.80711085 278.54307269 463.88081868 302.72524587 463.92412186 326.90768051 C463.94476123 338.13559235 463.97290814 349.36339228 464.01863098 360.5912323 C464.0584566 370.37558225 464.08429597 380.15985116 464.09322715 389.94427991 C464.09844914 395.12675584 464.11075129 400.30899993 464.1397934 405.49140167 C464.16689492 410.36690913 464.17532882 415.24208871 464.16930389 420.11766434 C464.17040649 421.90916601 464.17839166 423.70067837 464.19369507 425.49211502 C464.21354108 427.93463773 464.20883273 430.37591583 464.19789124 432.81846619 C464.2095426 433.5305312 464.22119397 434.24259622 464.2331984 434.97623897 C464.193639 438.23407723 463.89772328 440.10011621 462.02295685 442.80209351 C459.22097576 444.69593805 457.70352911 444.85487505 454.33851624 444.84178162 C453.24759171 444.84728027 452.15666718 444.85277893 451.03268433 444.85844421 C449.84082016 444.84406311 448.64895599 444.82968201 447.42097473 444.81486511 C446.16218002 444.81544922 444.90338531 444.81603333 443.60644531 444.81663513 C440.15821629 444.81778255 436.71054413 444.79426968 433.2624445 444.7663393 C429.65766284 444.74132977 426.05286833 444.73898402 422.44801331 444.73423767 C415.62336653 444.72180651 408.79897614 444.68898323 401.97444224 444.64883971 C394.20427964 444.60412619 386.43410477 444.58213605 378.66384554 444.56205797 C362.68137295 444.52025054 346.69915612 444.44989602 330.71687317 444.36076355 C330.70752747 443.47815857 330.69818176 442.59555359 330.68855286 441.686203 C330.64441203 438.39619683 330.58274641 435.10747281 330.50935364 431.81803894 C330.48121303 430.39726163 330.45996408 428.97632977 330.44587708 427.55534363 C330.42434923 425.50660996 330.37765803 423.45972055 330.32624817 421.4115448 C330.3053009 420.18089294 330.28435364 418.95024109 330.26277161 417.68229675 C329.62552957 413.80498104 328.44539544 412.13493143 325.71687317 409.36076355 C321.78183107 407.3932425 317.00632096 407.8965376 312.71687317 408.36076355 C309.71489853 410.16194833 308.26520951 411.26409087 306.71687317 414.36076355 C306.38687317 424.26076355 306.05687317 434.16076355 305.71687317 444.36076355 C274.03687317 444.36076355 242.35687317 444.36076355 209.71687317 444.36076355 C209.40437317 398.73576355 209.40437317 398.73576355 209.32893372 384.34660339 C209.2923555 380.07822891 209.2923555 380.07822891 209.25186157 375.80989075 C209.23574591 373.91352603 209.22543465 372.01710645 209.21975708 370.12068176 C209.21000111 367.24256698 209.18164364 364.3651657 209.14924622 361.48722839 C209.15067218 360.6469277 209.15209814 359.80662701 209.15356731 358.94086266 C209.07465868 354.02367212 208.43235442 350.62323107 205.71687317 346.36076355 C200.22303496 342.09136014 193.30045592 342.88393271 186.66218567 342.8490448 C185.40550079 342.8310936 184.14881592 342.8131424 182.85404968 342.79464722 C179.52991693 342.74975444 176.20614978 342.71740315 172.8818512 342.69120789 C169.48297394 342.66131021 166.08432718 342.61481182 162.68562317 342.56974792 C156.02947991 342.48484721 149.3733212 342.41648506 142.71687317 342.36076355 C142.71544815 341.60987457 142.71402313 340.8589856 142.71255493 340.08534241 C142.69469297 332.9937072 142.65298572 325.90270105 142.5847826 318.81139946 C142.55055484 315.16598734 142.52540935 311.52099238 142.52131653 307.87541199 C142.51702425 304.35423974 142.48848732 300.83400783 142.44344139 297.31312943 C142.42421395 295.32249673 142.42981479 293.33167413 142.43582153 291.34095764 C142.49950505 283.96846869 142.49950505 283.96846869 139.36018372 277.55265808 C135.50836018 274.35863649 132.73838909 274.23208697 127.88931274 274.20254517 C126.67355057 274.19275635 125.45778839 274.18296753 124.20518494 274.17288208 C122.85597268 274.16697794 121.50676002 274.16116749 120.157547 274.15544128 C118.73840042 274.14586226 117.31925669 274.13585217 115.90011597 274.1254425 C112.0450629 274.09838997 108.18999758 274.07738229 104.33490205 274.05744052 C100.30698552 274.03558313 96.27910677 274.00819323 92.2512207 273.98138428 C84.62274191 273.93145406 76.99424216 273.88651644 69.36572236 273.84336191 C59.05807807 273.78476398 48.75048344 273.71847533 38.44288349 273.65261173 C22.20091351 273.54903189 5.95890097 273.45574617 -10.28312683 273.36076355 C-10.28312683 240.03076355 -10.28312683 206.70076355 -10.28312683 172.36076355 C2.91687317 172.36076355 16.11687317 172.36076355 29.71687317 172.36076355 C29.74265442 176.26146667 29.76843567 180.1621698 29.79499817 184.18107605 C29.83342386 187.96402669 29.87858269 191.74684129 29.9243927 195.52970886 C29.95259695 198.15627026 29.97381413 200.78291645 29.98786926 203.40959167 C30.00930517 207.18802789 30.05596265 210.96544518 30.10749817 214.74357605 C30.10872681 215.9156662 30.10995544 217.08775635 30.11122131 218.29536438 C30.2239008 224.58510112 30.42926661 228.60517919 34.71687317 233.36076355 C37.7449115 235.73993653 40.96138369 235.71740108 44.75202942 235.61857605 C47.63524792 235.2402611 49.46052166 234.1525721 51.71687317 232.36076355 C54.15643612 228.70141913 53.97006307 226.94380529 53.97566223 222.58195496 C53.97916687 221.89704483 53.98267151 221.2121347 53.98628235 220.50646973 C53.99508655 218.24165212 53.98925398 215.97714686 53.98249817 213.71232605 C53.98384551 212.13675374 53.98578662 210.56118184 53.98829651 208.98561096 C53.99124625 205.68191066 53.98695614 202.37831847 53.97761536 199.07463074 C53.96623956 194.84557768 53.97276926 190.61677902 53.98476028 186.38773537 C53.99199893 183.13288977 53.98968143 179.87810412 53.9845047 176.62325668 C53.98317277 175.06438034 53.98479989 173.50549851 53.98946381 171.94662857 C53.99455996 169.76372697 53.98677497 167.5812326 53.97566223 165.39836121 C53.97407104 164.15720551 53.97247986 162.9160498 53.97084045 161.63728333 C53.66870136 157.73928243 52.97656152 154.71629776 50.27937317 151.81388855 C46.01876042 148.53321674 43.96617166 147.24273988 38.64045715 147.17131042 C37.58273605 147.1545929 36.52501495 147.13787537 35.4352417 147.12065125 C34.28939102 147.10707581 33.14354034 147.09350037 31.96296692 147.07951355 C30.2061837 147.05189941 30.2061837 147.05189941 28.41390991 147.02372742 C23.38486636 146.94480859 18.35568496 146.87716005 13.32649231 146.80851746 C9.66357997 146.75693714 6.00078837 146.69963497 2.33796692 146.64201355 C1.19009201 146.62843811 0.0422171 146.61486267 -1.14044189 146.60087585 C-2.7222953 146.57579956 -2.7222953 146.57579956 -4.33610535 146.55021667 C-5.26939163 146.5376886 -6.20267792 146.52516052 -7.16424561 146.51225281 C-9.28312683 146.36076355 -9.28312683 146.36076355 -10.28312683 145.36076355 C-10.37699064 143.48895415 -10.40056487 141.61358295 -10.39665222 139.73942566 C-10.39657669 138.53825607 -10.39650116 137.33708649 -10.39642334 136.09951782 C-10.39126205 134.79225235 -10.38610077 133.48498688 -10.38078308 132.1381073 C-10.37891882 130.79432223 -10.37749495 129.45053648 -10.37649536 128.10675049 C-10.37267085 124.56394078 -10.36284115 121.02117185 -10.35179138 117.4783783 C-10.34157583 113.86561139 -10.33694273 110.25283771 -10.33195496 106.64006042 C-10.32174901 99.54692542 -10.30217734 92.45390248 -10.28312683 85.36076355 C8.85687317 85.36076355 27.99687317 85.36076355 47.71687317 85.36076355 C46.00082072 89.65089466 44.99415848 91.40669963 42.09187317 94.67326355 C39.72342091 97.6511711 38.18514664 99.76187473 37.96687317 103.61076355 C38.48117091 107.41968911 38.48117091 107.41968911 40.71687317 110.36076355 C43.7874995 112.40784777 45.85740545 113.23892487 49.57624817 112.9427948 C58.44764649 110.53068102 66.16511803 100.36195911 72.68171692 94.17326355 C77.20470688 89.88186274 81.82307137 85.70123928 86.45906067 81.53263855 C89.5474538 78.56179672 91.04715846 76.40178971 91.27937317 72.14982605 C91.15878351 67.18354192 89.2813079 64.9526578 85.79011536 61.59196472 C84.76386047 60.67314514 84.76386047 60.67314514 83.71687317 59.73576355 C83.02496887 59.08261169 82.33306458 58.42945984 81.62019348 57.7565155 C79.67462294 55.93157034 77.70377944 54.14047618 75.71687317 52.36076355 C74.53351379 51.28761902 74.53351379 51.28761902 73.32624817 50.1927948 C72.12372602 49.12921954 70.90948268 48.0786895 69.68171692 47.0443573 C66.13428654 44.0047102 62.7473425 40.7798985 59.33015442 37.59513855 C54.87058424 33.78217272 51.54101485 31.69418162 45.65437317 31.9506073 C42.11518077 32.6998315 40.69649795 34.45318965 38.71687317 37.36076355 C37.92444615 41.10678217 38.13167138 43.3095348 40.00202942 46.6693573 C41.03731793 48.21847451 42.10525641 49.74641515 43.20906067 51.2474823 C44.71687317 53.36076355 44.71687317 53.36076355 46.71687317 57.36076355 C28.23687317 57.36076355 9.75687317 57.36076355 -9.28312683 57.36076355 C-9.34500183 48.51263855 -9.40687683 39.66451355 -9.47062683 30.54826355 C-9.49793884 27.75639587 -9.52525085 24.9645282 -9.5533905 22.08805847 C-9.56215045 19.88078749 -9.56979555 17.67351167 -9.57609558 15.4662323 C-9.59911743 13.7403186 -9.59911743 13.7403186 -9.62260437 11.97953796 C-9.62296692 10.88355286 -9.62332947 9.78756775 -9.623703 8.65837097 C-9.63036484 7.70572861 -9.63702667 6.75308624 -9.64389038 5.77157593 C-9.28312683 3.36076355 -9.28312683 3.36076355 -8.15327454 1.7326355 C-5.42960653 -0.26534772 -3.3560444 -0.00808685 0 0 Z " fill="#4FB0A5" transform="translate(99.28312683105469,75.63923645019531)"/>
<path d="M0 0 C215.16 0 430.32 0 652 0 C652 196.35 652 392.7 652 595 C436.84 595 221.68 595 0 595 C0 398.65 0 202.3 0 0 Z M66.65978009 59.59354115 C61.39723242 67.43984714 62.30860286 76.43184038 62.37181091 85.48510742 C62.36676314 87.38387567 62.35953253 89.28263915 62.35031277 91.18139172 C62.33139652 96.38856663 62.34362092 101.59527144 62.3610357 106.80243444 C62.37440989 112.42215795 62.3589724 118.04181269 62.34721375 123.66152954 C62.32883327 134.6663978 62.33735228 145.67108851 62.35530197 156.67595124 C62.36932673 165.61970412 62.37322103 174.56340881 62.3698597 183.50717163 C62.36938225 184.78001989 62.36890481 186.05286814 62.3684129 187.36428756 C62.36738657 189.95004218 62.36633121 192.53579679 62.36524714 195.12155139 C62.35642038 218.67781908 62.37507438 242.23397126 62.40577737 265.79021232 C62.4336374 287.28758406 62.43860124 308.78484268 62.42358398 330.28222656 C62.41976145 335.78730768 62.41596662 341.2923888 62.4124136 346.79747009 C62.41197578 347.47524171 62.41153797 348.15301333 62.41108689 348.85132348 C62.3998435 366.82224583 62.40727146 384.79315635 62.42029434 402.76407719 C62.42213874 405.34032757 62.42397346 407.91657797 62.42579842 410.49282837 C62.42671051 411.76039779 62.4276226 413.02796722 62.42856232 414.33394784 C62.43416871 423.26710606 62.43085957 432.20023566 62.42425346 441.13339233 C62.4165226 452.0197137 62.42326408 462.90591348 62.4484285 473.79221034 C62.46092914 479.34672943 62.46706306 484.9010592 62.45588684 490.45558548 C62.4458481 495.54080066 62.45429663 500.62563822 62.47746802 505.71080744 C62.48262838 507.54984557 62.48106357 509.38891752 62.47207337 511.22794092 C62.36498109 525.68201509 62.36498109 525.68201509 68.82421875 538.3046875 C69.74654297 539.08199219 69.74654297 539.08199219 70.6875 539.875 C71.28949219 540.40867187 71.89148438 540.94234375 72.51171875 541.4921875 C78.82294038 545.31656984 85.36134234 546.44568926 92.6355114 546.38031673 C93.4597733 546.38497665 94.2840352 546.38963657 95.13327473 546.3944377 C97.88327516 546.40634721 100.63277781 546.39700797 103.38278198 546.38768005 C105.37911628 546.39185474 107.37544821 546.39733299 109.37177575 546.40399987 C114.84861394 546.41845548 120.32530167 546.41420932 125.8021481 546.40683305 C131.71229036 546.402104 137.62239994 546.41460892 143.53253174 546.42485046 C154.43867484 546.44105514 165.34476763 546.44348274 176.25092038 546.43854547 C186.32784064 546.43398593 196.40474307 546.43459042 206.48166275 546.44038582 C207.83406626 546.44114269 209.18646978 546.44189867 210.53887329 546.44265376 C212.57689894 546.44379897 214.61492459 546.44494885 216.65295022 546.44611301 C235.59748147 546.45681601 254.54200678 546.46154532 273.48653984 546.45364285 C274.20047266 546.45334567 274.91440548 546.4530485 275.64997263 546.45274232 C281.44737468 546.45029346 287.24477666 546.44768183 293.04217864 546.44505819 C315.6539611 546.43495648 338.2656693 546.44331051 360.87744141 546.46655273 C386.29134097 546.49263304 411.70519583 546.5054712 437.11910927 546.49836498 C439.82964141 546.49764894 442.54017356 546.49697455 445.25070572 546.49632454 C445.9180904 546.49615473 446.58547507 546.49598492 447.27308353 546.49580997 C457.34114933 546.49350837 467.40917358 546.50147731 477.47723007 546.51461601 C488.9292829 546.52932764 500.38123181 546.52998695 511.83328258 546.5125451 C517.67564171 546.50402425 523.51781512 546.50191227 529.36016464 546.51719666 C534.71069236 546.53102103 540.06087482 546.52630923 545.41138245 546.50695742 C547.34467354 546.50319023 549.27799213 546.50614003 551.21125875 546.51656907 C567.41694117 546.74019673 567.41694117 546.74019673 581.75390625 539.8515625 C582.35074219 539.11679687 582.94757812 538.38203125 583.5625 537.625 C584.18253906 536.89539063 584.80257812 536.16578125 585.44140625 535.4140625 C588.7945435 530.2204815 589.29253653 525.13650184 589.26285553 519.08724499 C589.2669608 518.30467802 589.27106606 517.52211106 589.27529573 516.71582994 C589.28661783 514.08972062 589.28372354 511.46382167 589.28088379 508.83769226 C589.28605208 506.93739274 589.29207868 505.0370954 589.29889059 503.13680106 C589.31502513 497.91159619 589.31860942 492.68644627 589.32008553 487.46121943 C589.32378751 481.8271383 589.33888249 476.19308565 589.35235596 470.559021 C589.37951818 458.23892093 589.3915709 445.91883389 589.40037727 433.59870887 C589.40590199 425.90756247 589.41437659 418.21642109 589.42338562 410.52527809 C589.44776871 389.23442555 589.46843963 367.94357831 589.4751358 346.65271282 C589.47557907 345.27635524 589.47602263 343.89999766 589.47646651 342.52364009 C589.47690779 341.1439802 589.47734875 339.76432031 589.4777894 338.38466042 C589.4786745 335.61687322 589.47956873 332.84908602 589.48046875 330.08129883 C589.48068753 329.3950505 589.48090631 328.70880216 589.48113173 328.00175843 C589.48839453 305.74537056 589.52024303 283.48911291 589.56684948 261.23277491 C589.61604399 237.69749208 589.64346786 214.16231013 589.64587164 190.62696677 C589.64770612 177.7990718 589.65923558 164.97134741 589.69551086 152.14349937 C589.72628549 141.22232334 589.73656998 130.3013706 589.72003466 119.38015946 C589.71221221 113.80732619 589.71412592 108.23494282 589.74214935 102.66216469 C589.76757163 97.56005361 589.76528288 92.45873175 589.74096793 87.3566222 C589.73704414 85.51142405 589.74325658 83.66617053 589.76065665 81.82105025 C590.05491536 69.47210533 590.05491536 69.47210533 584.67118216 58.65253192 C577.15733092 51.22253455 570.26013463 48.68479826 559.58938026 48.74273109 C558.76513849 48.73922502 557.94089671 48.73571895 557.0916779 48.73210663 C554.32981937 48.72280292 551.56817218 48.72771329 548.80630493 48.73257446 C546.80614786 48.7288377 544.80599224 48.72423607 542.80583894 48.71884382 C537.30924988 48.70660188 531.81272164 48.70687569 526.31612206 48.70923257 C520.38826431 48.70964043 514.46042615 48.69860462 508.53257751 48.68911743 C496.91922247 48.67250043 485.30588618 48.66698168 473.69252039 48.66589268 C464.25435492 48.66497343 454.81619602 48.66085591 445.37803268 48.65449142 C442.6608319 48.65269633 439.9436311 48.6509167 437.2264303 48.64914167 C436.55092081 48.64869957 435.87541132 48.64825748 435.17943184 48.64780198 C416.18060424 48.6354949 397.18177892 48.62760073 378.18294716 48.62848854 C377.46674901 48.6285197 376.75055086 48.62855086 376.01264974 48.62858296 C372.38269079 48.62874917 368.75273184 48.62894725 365.12277289 48.62915237 C364.4018543 48.62919226 363.68093572 48.62923215 362.93817112 48.62927325 C361.48029879 48.62935413 360.02242646 48.62943772 358.56455412 48.62952404 C335.87927348 48.63074971 313.19405261 48.61573271 290.50878906 48.58837891 C265.0202153 48.55765752 239.53168081 48.54044641 214.04308736 48.54230535 C211.32525786 48.54245461 208.60742836 48.54255202 205.88959885 48.54261398 C205.22040317 48.54263729 204.5512075 48.5426606 203.86173317 48.54268462 C193.7603472 48.54274235 183.65900826 48.5321053 173.55763626 48.51594925 C162.06925132 48.49776043 150.58096436 48.49337132 139.09257127 48.5069681 C133.23021766 48.51350901 127.36805217 48.51357419 121.50571632 48.4962616 C116.13918276 48.48057603 110.77298721 48.48334845 105.40646212 48.50082986 C103.46506901 48.50390967 101.52365096 48.50023059 99.58228727 48.48910971 C86.42929413 48.41875426 75.78556179 48.74285279 66.65978009 59.59354115 Z " fill="#4EAFA4" transform="translate(0,0)"/>
<path d="M0 0 C215.16 0 430.32 0 652 0 C652 196.35 652 392.7 652 595 C436.84 595 221.68 595 0 595 C0 398.65 0 202.3 0 0 Z M25.3125 30.8125 C15.05653118 43.0713992 8.83281096 58.74879348 8.86577892 74.75453663 C8.86342669 75.5321642 8.86107446 76.30979177 8.85865095 77.11098382 C8.85197447 79.72633172 8.85241877 82.34162978 8.85282898 84.95698547 C8.8495295 86.8473066 8.84580375 88.73762703 8.8416875 90.62794656 C8.83166868 95.830485 8.82795088 101.03301191 8.82529819 106.23555863 C8.82139471 111.84387777 8.81181629 117.45218778 8.80308533 123.0605011 C8.78332055 136.60996609 8.77325397 150.15943183 8.76435754 163.70890763 C8.75997402 170.09096992 8.75460732 176.47303137 8.74936867 182.855093 C8.73235518 204.07383352 8.71783701 225.29257309 8.71061993 246.51131916 C8.71014517 247.88344096 8.70966928 249.25556275 8.70919226 250.62768454 C8.70895589 251.30811985 8.70871951 251.98855515 8.70847597 252.6896097 C8.7072748 256.13690452 8.70605934 259.58419933 8.70483398 263.03149414 C8.70459383 263.7156152 8.70435368 264.39973627 8.70410626 265.10458827 C8.6962187 287.27019455 8.67279876 309.43574723 8.64027804 331.60133012 C8.60594003 355.04848355 8.58626614 378.49559406 8.58297569 401.94277638 C8.58081204 414.71889196 8.57208476 427.49492878 8.54651451 440.27102089 C8.52478361 451.15392278 8.51676884 462.03672679 8.52648129 472.91964791 C8.53101923 478.46894655 8.52916912 484.01804333 8.50971985 489.56731415 C8.49203915 494.65611292 8.49312572 499.74456333 8.50861714 504.83336606 C8.51098578 506.66592948 8.50670865 508.49851734 8.49478849 510.33104352 C8.35153559 533.8254132 14.74399638 553.14584238 31.234375 570.328125 C49.35484618 587.73798947 70.23459972 591.30858465 94.3868866 591.26742554 C96.46800298 591.27116519 98.54911796 591.27576796 100.63023072 591.28115618 C106.33229902 591.29336255 112.03430853 591.2931285 117.7363869 591.29076743 C123.89266714 591.29035867 130.0489287 591.30140406 136.2052002 591.31088257 C148.26018549 591.32748044 160.3151459 591.33301751 172.37013962 591.33410732 C182.1709448 591.33502755 191.97174365 591.33915015 201.77254677 591.34550858 C204.59699465 591.34730375 207.42144254 591.34908338 210.24589044 591.35085833 C210.94812107 591.35130043 211.6503517 591.35174252 212.37386205 591.35219802 C232.11788134 591.36450098 251.86189845 591.3723997 271.60592175 591.37151146 C272.72179389 591.37146472 272.72179389 591.37146472 273.8602089 591.37141704 C277.63039979 591.37125084 281.40059068 591.37105275 285.17078158 591.37084763 C286.29387603 591.37078779 286.29387603 591.37078779 287.43965926 591.37072675 C288.95377217 591.37064587 290.46788509 591.37056228 291.981998 591.37047596 C315.53400318 591.36925072 339.08595075 591.38426094 362.63793945 591.41162109 C389.11873773 591.44237119 415.59949816 591.45955184 442.08031541 591.45769465 C444.90633508 591.4575454 447.73235474 591.45744798 450.5583744 591.45738602 C451.25417513 591.45736271 451.94997585 591.4573394 452.66686144 591.45731538 C463.84250242 591.45725395 475.0180932 591.47000135 486.19371928 591.48725055 C497.43395543 591.50424014 508.67411937 591.50581302 519.9143677 591.4930319 C525.99836798 591.48650919 532.08218715 591.4863602 538.16617012 591.5037384 C543.74323697 591.51950443 549.31997962 591.51656921 554.89703874 591.49917014 C556.90707698 591.49610806 558.91713964 591.49970251 560.92714908 591.51089029 C584.88712344 591.6353456 606.00543704 585.9024897 623.43212891 568.66357422 C639.94514179 551.14260414 644.63828686 530.11300189 644.49447632 506.79373169 C644.49765978 504.90201235 644.50259416 503.01029531 644.50910914 501.11858451 C644.5218383 495.96340802 644.50987677 490.80854957 644.49358058 485.65339422 C644.48034991 480.07741701 644.49033999 474.50147315 644.49734497 468.92549133 C644.50739776 458.02085837 644.49618593 447.11634729 644.47764437 436.21172948 C644.45682156 423.50657374 644.45701817 410.80144396 644.45798953 398.09627436 C644.45901964 374.74360605 644.43898192 351.39101071 644.40898465 328.03836777 C644.38172007 306.73455368 644.36926306 285.43078452 644.37060547 264.12695312 C644.37068629 262.75806487 644.37076701 261.38917662 644.37084763 260.02028836 C644.37088833 259.34352336 644.37092903 258.66675836 644.37097096 257.96948533 C644.37117257 254.56249749 644.37135373 251.15550965 644.37151146 247.7485218 C644.37154489 247.07632279 644.37157831 246.40412377 644.37161275 245.71155509 C644.37250021 224.06224058 644.35826021 202.41293393 644.34278577 180.76362572 C644.33675708 171.91001417 644.33462715 163.0564065 644.33372116 154.20279312 C644.33235623 143.41624787 644.32341722 132.62973819 644.30505554 121.84320803 C644.29582959 116.34122162 644.28972492 110.83928067 644.29224396 105.337286 C644.29443873 100.29927589 644.28736863 95.26136625 644.27294691 90.22337709 C644.26932956 88.40269709 644.26905058 86.58200669 644.27248149 84.76132633 C644.30650034 64.4577968 640.30298419 48.48750223 628 32 C627.31357422 31.03707031 627.31357422 31.03707031 626.61328125 30.0546875 C616.58847554 17.10974318 599.80321759 8.16746862 583.8935377 5.47410411 C579.64228744 4.95644244 575.53002331 4.86026347 571.25417805 4.87136555 C570.39369084 4.86961251 569.53320363 4.86785947 568.64664105 4.86605331 C565.76150696 4.86139915 562.87642341 4.86385733 559.99128723 4.86628723 C557.90252395 4.86441896 555.81376103 4.8621182 553.72499865 4.85942191 C547.98337957 4.8532994 542.24177503 4.85343804 536.50015342 4.85461628 C530.30843943 4.85482018 524.11673012 4.8493026 517.92501831 4.84455872 C505.79329321 4.836249 493.66157473 4.83349077 481.52984736 4.83294634 C471.66884558 4.8324867 461.80784537 4.83042788 451.9468441 4.82724571 C449.1078015 4.82634816 446.26875889 4.82545834 443.42971629 4.82457083 C442.7239076 4.82434979 442.01809891 4.82412874 441.29090208 4.82390099 C421.43828562 4.81774698 401.58566971 4.81380041 381.73305225 4.81424427 C380.98460684 4.81425985 380.23616142 4.81427543 379.46503583 4.81429148 C375.67165669 4.81437459 371.87827754 4.81447363 368.08489839 4.81457619 C367.33152873 4.81459613 366.57815906 4.81461608 365.80196001 4.81463663 C364.27846252 4.81467706 362.75496502 4.81471886 361.23146752 4.81476202 C337.53247937 4.81537467 313.83350554 4.80787008 290.13452148 4.79418945 C263.50437205 4.77882308 236.87423201 4.77022358 210.24407786 4.77115268 C207.40346348 4.7712273 204.56284911 4.77127601 201.72223473 4.77130699 C201.02281201 4.77131865 200.3233893 4.7713303 199.60277195 4.77134231 C188.35547016 4.77137306 177.10818081 4.76499175 165.86088272 4.75637473 C154.55302851 4.74789062 143.24519741 4.74708554 131.93734 4.75348405 C125.81340751 4.75675097 119.68952003 4.75679968 113.56559181 4.7481308 C107.95658376 4.74027253 102.34765647 4.74169043 96.7386504 4.75041493 C94.71241423 4.7519514 92.68617205 4.75012824 90.65994296 4.74455485 C63.89708495 4.67583187 44.02622784 10.7203056 25.3125 30.8125 Z " fill="#F8F4EA" transform="translate(0,0)"/>
<path d="M0 0 C1.24132753 0.00128403 1.24132753 0.00128403 2.50773239 0.00259399 C12.73434452 0.01396056 22.96092078 0.03400147 33.1875 0.0625 C33.19296844 1.17004135 33.19296844 1.17004135 33.19854736 2.29995728 C33.23648539 9.27378342 33.29340396 16.24722714 33.37140274 23.22071266 C33.41083601 26.80552571 33.44304438 30.39009467 33.45849609 33.97509766 C33.47369074 37.4378274 33.50818408 40.89988592 33.55580902 44.36231613 C33.57776753 46.31969741 33.57997133 48.27726819 33.58184814 50.23477173 C33.62284943 58.9961825 33.62284943 58.9961825 38.1875 66.0625 C41.44488963 68.11216865 44.05988989 68.33071756 47.87402344 68.38134766 C49.60918213 68.41143921 49.60918213 68.41143921 51.37939453 68.44213867 C53.19479736 68.45917847 53.19479736 68.45917847 55.046875 68.4765625 C56.16336426 68.49420654 57.27985352 68.51185059 58.43017578 68.5300293 C62.59913759 68.59307544 66.76834039 68.63927652 70.9375 68.6875 C80.26 68.81125 89.5825 68.935 99.1875 69.0625 C99.1875 93.8125 99.1875 118.5625 99.1875 144.0625 C74.44911682 144.10759872 49.71076678 144.14446107 24.97235298 144.16612434 C13.48659929 144.17644908 2.00087289 144.19053222 -9.48486328 144.21337891 C-19.49259621 144.2332762 -29.50030937 144.24620772 -39.50806153 144.25067699 C-44.81000408 144.25329059 -50.11189007 144.25945841 -55.41381454 144.27396011 C-60.39923433 144.28748627 -65.38457399 144.29173276 -70.37001038 144.28871536 C-72.20426493 144.28926776 -74.03852203 144.29327467 -75.87276077 144.30091095 C-78.36822592 144.31079461 -80.86338463 144.30849318 -83.3588562 144.30300903 C-84.09231069 144.30883472 -84.82576519 144.3146604 -85.58144557 144.32066262 C-90.58425758 144.29074242 -90.58425758 144.29074242 -92.8125 142.0625 C-93.05300903 139.08859253 -93.05300903 139.08859253 -93.03955078 135.22607422 C-93.03984283 134.52352509 -93.04013489 133.82097595 -93.04043579 133.09713745 C-93.03904023 130.77036269 -93.02346872 128.44390646 -93.0078125 126.1171875 C-93.00408317 124.50578995 -93.00123582 122.89439013 -92.99923706 121.2829895 C-92.99159431 117.03816486 -92.97194039 112.7934767 -92.9498291 108.54870605 C-92.92579099 103.45762452 -92.91659274 98.36649739 -92.90492249 93.27537537 C-92.88551629 85.53765527 -92.84719836 77.80023474 -92.8125 70.0625 C-72.6825 70.0625 -52.5525 70.0625 -31.8125 70.0625 C-31.4825 79.3025 -31.1525 88.5425 -30.8125 98.0625 C-28.31193407 103.03871743 -28.31193407 103.03871743 -24.8125 105.0625 C-19.95773949 105.77014306 -16.01061251 105.771587 -11.75 103.25 C-8.95581208 100.0952717 -8.68464293 97.54656067 -8.63549805 93.48681641 C-8.62266281 92.56220612 -8.60982758 91.63759583 -8.59660339 90.68496704 C-8.58921646 89.68806854 -8.58182953 88.69117004 -8.57421875 87.6640625 C-8.56211113 86.12339615 -8.56211113 86.12339615 -8.54975891 84.55160522 C-8.53592677 82.3778451 -8.52520073 80.20406334 -8.51733398 78.03027344 C-8.50010249 74.70726455 -8.45620572 71.3852458 -8.41210938 68.0625 C-8.40198388 65.95052815 -8.39346733 63.83854784 -8.38671875 61.7265625 C-8.36045662 60.23728745 -8.36045662 60.23728745 -8.33366394 58.71792603 C-8.34751965 54.30904262 -8.37075317 51.78356422 -10.71411133 47.95849609 C-14.38371125 44.64283431 -17.46736711 44.89489312 -22.19970703 44.85717773 C-22.96077759 44.84727814 -23.72184814 44.83737854 -24.50598145 44.82717896 C-27.02739324 44.79553322 -29.54882388 44.77079443 -32.0703125 44.74609375 C-33.81623836 44.72552687 -35.56215922 44.70453047 -37.30807495 44.68312073 C-41.90789742 44.62787254 -46.50776503 44.5784754 -51.10766602 44.53027344 C-56.62433318 44.47125638 -62.14091767 44.40501332 -67.65751648 44.33997345 C-76.04246059 44.24192937 -84.42745721 44.15309701 -92.8125 44.0625 C-92.8125 29.8725 -92.8125 15.6825 -92.8125 1.0625 C-61.86997102 0.31270267 -30.95044361 -0.03224424 0 0 Z " fill="#4FB1A4" transform="translate(182.8125,374.9375)"/>
<path d="M0 0 C3.76222288 2.1980602 6.36639367 4.94706515 8 9 C8.24609566 11.13201523 8.24609566 11.13201523 8.24050903 13.46722412 C8.24325836 14.35620895 8.24600769 15.24519379 8.24884033 16.16111755 C8.24164978 17.128564 8.23445923 18.09601044 8.22705078 19.09277344 C8.22734283 20.11748245 8.22763489 21.14219147 8.22793579 22.19795227 C8.22654239 25.5851793 8.21098046 28.97218639 8.1953125 32.359375 C8.19158241 34.70778279 8.18873542 37.05619214 8.18673706 39.40460205 C8.17910028 45.58600154 8.15945131 51.76730707 8.1373291 57.94866943 C8.1168717 64.25613128 8.10773556 70.5636083 8.09765625 76.87109375 C8.07620554 89.24743712 8.04206897 101.62371075 8 114 C9.58144176 113.99446924 9.58144176 113.99446924 11.19483185 113.98882675 C36.85075307 113.9000198 62.50665436 113.83429282 88.16269684 113.79275131 C100.56978316 113.77212807 112.97676792 113.74401185 125.38378906 113.69824219 C136.19802783 113.65836734 147.01219304 113.63256546 157.82650328 113.62364602 C163.55236128 113.61843242 169.27800888 113.60618318 175.00379944 113.57707977 C180.39475829 113.54990065 185.78542033 113.54156016 191.17644119 113.54756927 C193.15331765 113.54647017 195.13020419 113.5385313 197.10702133 113.5231781 C199.8108455 113.50321115 202.51355609 113.50808519 205.21740723 113.51898193 C206.38475615 113.50150488 206.38475615 113.50150488 207.57568789 113.48367476 C213.08550239 113.54349857 217.42367336 114.86315816 222 118 C226.01740233 122.94449517 227.12985776 126.78377491 227.1111145 133.02081299 C227.1107872 134.03286301 227.1104599 135.04491302 227.11012268 136.08763123 C227.10488083 137.19212112 227.09963898 138.29661102 227.09423828 139.43457031 C227.0914518 141.85516345 227.08878191 144.27575672 227.08621216 146.6963501 C227.08316196 147.98029915 227.08011177 149.2642482 227.07696915 150.5871048 C227.07026689 154.60547366 227.07400977 158.62367252 227.08297729 162.64202881 C227.0844483 163.32107151 227.08591931 164.00011422 227.08743489 164.69973397 C227.09050555 166.08817048 227.09362558 167.47660688 227.09679389 168.86504316 C227.11795242 178.21661468 227.13170843 187.56787448 227.09960938 196.91943359 C227.07804199 203.23214557 227.08128164 209.54430953 227.11301792 215.85698581 C227.12883108 219.1945051 227.12838216 222.53010133 227.10525894 225.86771393 C227.08109754 229.5952978 227.10030405 233.32035549 227.12939453 237.04785156 C227.10331367 238.69244102 227.10331367 238.69244102 227.07670593 240.37025452 C227.18560684 247.08697832 228.38652326 250.61422483 233.20448112 255.37264633 C233.79700235 255.90967304 234.38952358 256.44669975 235 257 C236.00870035 258.01345003 237.01536345 259.02893375 238.01953125 260.046875 C239.89343952 261.8605037 241.768454 263.67299006 243.64453125 265.484375 C246.92479209 268.98767182 248.02350654 270.68363365 247.9375 275.5 C247 279 247 279 244.875 281.4375 C241.20528171 283.43191212 239.12942195 283.57956799 235 283 C230.20534507 280.20187324 226.45583236 276.74982773 222.578125 272.84375 C221.99206482 272.25960327 221.40600464 271.67545654 220.80218506 271.0736084 C219.57285939 269.84563612 218.34602519 268.61516503 217.12158203 267.38232422 C215.2486205 265.49861258 213.36517371 263.62586015 211.48046875 261.75390625 C210.28321205 260.55532856 209.08657558 259.35613095 207.890625 258.15625 C207.32917786 257.59885132 206.76773071 257.04145264 206.18927002 256.46716309 C202.03392827 252.26154409 199.74559189 249.39548939 199.75949097 243.41888428 C199.75536697 242.04754333 199.75536697 242.04754333 199.75115967 240.64849854 C199.7619455 239.15525055 199.7619455 239.15525055 199.77294922 237.63183594 C199.77265717 236.57786621 199.77236511 235.52389648 199.77206421 234.43798828 C199.77345783 230.95336685 199.78902078 227.46895909 199.8046875 223.984375 C199.80841751 221.56870643 199.81126454 219.15303635 199.81326294 216.73736572 C199.82090032 210.37841619 199.84054982 204.01955798 199.8626709 197.66064453 C199.88672338 190.03148282 199.8959098 182.40229058 199.90757751 174.77310181 C199.92697404 163.18200435 199.96529609 151.59110728 200 140 C167.66 140 135.32 140 102 140 C102 153.2 102 166.4 102 180 C105.61195313 179.94199219 109.22390625 179.88398438 112.9453125 179.82421875 C116.45017299 179.78520598 119.95500913 179.75485668 123.45996094 179.7253418 C125.89268857 179.70022371 128.32534092 179.66612296 130.7578125 179.62280273 C134.25800159 179.56203556 137.7571915 179.53376217 141.2578125 179.51171875 C142.34240753 179.48591232 143.42700256 179.4601059 144.54446411 179.43351746 C152.98802215 179.43039308 152.98802215 179.43039308 156.60888672 182.34301758 C160.83248634 187.03624146 161.29756757 190.05056363 161.29052734 196.13989258 C161.29724457 196.96949997 161.30396179 197.79910736 161.31088257 198.65385437 C161.32990469 201.40080735 161.3337891 204.14751647 161.3359375 206.89453125 C161.34236331 208.80401205 161.34909151 210.71349186 161.35610962 212.62297058 C161.3680935 216.62863446 161.37178938 220.63421203 161.37060547 224.63989258 C161.3704024 229.76803231 161.39768687 234.89561708 161.43214989 240.02362537 C161.45441099 243.96907584 161.45844322 247.91439269 161.45738602 251.85989952 C161.45974384 253.7501078 161.4685776 255.64031966 161.48405075 257.53046608 C161.50369157 260.17801101 161.49788011 262.82435878 161.48583984 265.47192383 C161.49707886 266.24980255 161.50831787 267.02768127 161.51989746 267.82913208 C161.45985442 273.03633455 160.31700335 276.00462485 157 280 C152.634442 282.910372 149.20499921 283.6506249 144 283 C139.02318994 280.51159497 137.09193316 278.08256846 135 273 C134.63923645 269.7348938 134.63923645 269.7348938 134.65942383 266.16845703 C134.65898575 265.51409164 134.65854767 264.85972626 134.65809631 264.18553162 C134.66017085 262.0426451 134.68343673 259.90056074 134.70703125 257.7578125 C134.712632 256.26423571 134.71689984 254.77065338 134.71989441 253.27706909 C134.73130559 249.36100844 134.76074009 245.44528576 134.79400635 241.52935791 C134.82478806 237.52743094 134.83841699 233.52544894 134.85351562 229.5234375 C134.88561388 221.6821372 134.93676447 213.84111074 135 206 C134.38691986 206.00888245 133.77383972 206.01776489 133.1421814 206.0269165 C126.75064433 206.11553682 120.35928233 206.17579531 113.96728516 206.21972656 C111.58309843 206.23981893 109.19896085 206.26709781 106.81494141 206.30175781 C103.38431662 206.35037859 99.95434445 206.37299312 96.5234375 206.390625 C95.46071625 206.41127014 94.397995 206.43191528 93.30307007 206.45318604 C87.35754626 206.45498127 83.61286249 206.16097907 79 202 C70.54797564 192.95569575 74.95905403 168.2823131 74.98046875 156.1328125 C74.9820412 154.55802423 74.98346617 152.9832358 74.98474121 151.40844727 C74.98813382 147.60562759 74.99349908 143.80281558 75 140 C73.5387394 140.00999275 73.5387394 140.00999275 72.04795837 140.02018738 C62.85258473 140.08108904 53.65725219 140.12601607 44.46172237 140.15543652 C39.73456838 140.17107052 35.00757763 140.19226733 30.28051758 140.22631836 C25.71583521 140.25899271 21.15130956 140.27687005 16.58651924 140.28463173 C14.84785051 140.29016076 13.10919004 140.30095761 11.3705883 140.31719017 C8.92908284 140.33907208 6.48821912 140.34196248 4.04663086 140.34057617 C3.33308945 140.351362 2.61954803 140.36214783 1.88438416 140.3732605 C-3.84604273 140.33821555 -8.58234347 139.1190615 -12.9609375 135.28125 C-13.42757812 134.6934375 -13.89421875 134.105625 -14.375 133.5 C-14.85710937 132.9121875 -15.33921875 132.324375 -15.8359375 131.71875 C-17.95520976 128.58962317 -18.12778837 125.85527039 -18.14044189 122.19314575 C-18.14615204 121.20337738 -18.15186218 120.21360901 -18.15774536 119.19384766 C-18.15942215 117.56672852 -18.15942215 117.56672852 -18.16113281 115.90673828 C-18.16609772 114.76341034 -18.17106262 113.6200824 -18.17617798 112.44210815 C-18.19080972 108.65150353 -18.19760295 104.86094075 -18.203125 101.0703125 C-18.20887515 98.44098916 -18.2146329 95.81166584 -18.22039795 93.18234253 C-18.22996795 88.37136567 -18.23586573 83.56039786 -18.2388947 78.74941266 C-18.2433758 71.67118529 -18.2609277 64.593151 -18.2898953 57.51498234 C-18.31412383 51.38165933 -18.32183934 45.24841599 -18.32357025 39.11504745 C-18.32660115 36.50671207 -18.33464429 33.89837759 -18.34775543 31.29007339 C-18.36477668 27.64391628 -18.36294509 23.99823131 -18.35644531 20.35205078 C-18.3656601 19.27135315 -18.37487488 18.19065552 -18.3843689 17.07720947 C-18.34676891 10.3567397 -17.53084499 6.84720061 -13 1.75 C-9.04726779 -1.70864068 -4.82519291 -1.34083811 0 0 Z " fill="#045C2E" transform="translate(213,169)"/>
<path d="M0 0 C20.79 0 41.58 0 63 0 C63.375 29.125 63.375 29.125 63.47802734 38.29345703 C63.51324105 40.69825338 63.54916316 43.10303951 63.5859375 45.5078125 C63.59729736 46.75103271 63.60865723 47.99425293 63.62036133 49.27514648 C63.64042236 50.47228271 63.6604834 51.66941895 63.68115234 52.90283203 C63.69447601 53.93763702 63.70779968 54.97244202 63.7215271 56.03860474 C64.02828461 59.30079016 64.76207304 61.9699489 66 65 C70.26698896 67.93355491 76.01493963 67.53294231 81 67 C83.95948778 65.76688009 85.39547097 64.95009106 87.10507202 62.26324463 C88.23074905 59.41644293 88.2802593 57.09942849 88.31884766 54.03808594 C88.33871735 52.83714294 88.35858704 51.63619995 88.37905884 50.39886475 C88.39061005 49.10708313 88.40216125 47.81530151 88.4140625 46.484375 C88.43277987 45.14486505 88.45235371 43.80536682 88.4727478 42.46588135 C88.52401524 38.94786497 88.56366952 35.42981038 88.60089111 31.91162109 C88.64096474 28.31858918 88.69204171 24.72571546 88.7421875 21.1328125 C88.83888278 14.08865758 88.9233079 7.0444034 89 0 C97.81421584 -0.0926259 106.6282645 -0.16372688 115.4428606 -0.20724869 C119.53573085 -0.22813567 123.62826847 -0.25647286 127.72094727 -0.30175781 C131.66966209 -0.34517706 135.61805672 -0.36912874 139.56699181 -0.37950897 C141.07454152 -0.3869075 142.58207345 -0.40135512 144.08948708 -0.42292023 C146.19912386 -0.45190406 148.30743291 -0.4559584 150.41723633 -0.45410156 C151.61858719 -0.46298401 152.81993805 -0.47186646 154.05769348 -0.48101807 C157 0 157 0 158.89013672 1.44921875 C160.59064415 5.35746811 160.39201583 9.0493328 160.34057617 13.26660156 C160.34093778 14.21865353 160.34129938 15.17070549 160.34167194 16.15160751 C160.33943386 19.23149437 160.31659291 22.31083566 160.29296875 25.390625 C160.28855758 27.29280332 160.28549724 29.19498528 160.28381348 31.09716797 C160.26808855 38.14816753 160.22620488 45.19908913 160.1875 52.25 C160.125625 68.0075 160.06375 83.765 160 100 C107.2 100 54.4 100 0 100 C0 67 0 34 0 0 Z " fill="#50B1A5" transform="translate(403,76)"/>
<path d="M0 0 C8.25 0 16.5 0 25 0 C25.33 12.87 25.66 25.74 26 39 C29.61195313 39.01417969 33.22390625 39.02835937 36.9453125 39.04296875 C40.45028992 39.07359771 43.95507828 39.11268455 47.45996094 39.15258789 C49.89250993 39.17575965 52.32515913 39.19016164 54.7578125 39.19555664 C58.25844718 39.20485163 61.7575074 39.24585813 65.2578125 39.29296875 C66.34240753 39.2890361 67.42700256 39.28510345 68.54446411 39.28105164 C76.9880755 39.44356176 76.9880755 39.44356176 80.60888672 42.35668945 C84.84246875 47.03679897 85.2975608 50.05641806 85.29052734 56.13989258 C85.29724457 56.96949997 85.30396179 57.79910736 85.31088257 58.65385437 C85.32990469 61.40080735 85.3337891 64.14751647 85.3359375 66.89453125 C85.34236331 68.80401205 85.34909151 70.71349186 85.35610962 72.62297058 C85.3680935 76.62863446 85.37178938 80.63421203 85.37060547 84.63989258 C85.3704024 89.76803231 85.39768687 94.89561708 85.43214989 100.02362537 C85.45441099 103.96907584 85.45844322 107.91439269 85.45738602 111.85989952 C85.45974384 113.7501078 85.4685776 115.64031966 85.48405075 117.53046608 C85.50369157 120.17801101 85.49788011 122.82435878 85.48583984 125.47192383 C85.49707886 126.24980255 85.50831787 127.02768127 85.51989746 127.82913208 C85.45985442 133.03633455 84.31700335 136.00462485 81 140 C76.634442 142.910372 73.20499921 143.6506249 68 143 C63.02318994 140.51159497 61.09193316 138.08256846 59 133 C58.63923645 129.7348938 58.63923645 129.7348938 58.65942383 126.16845703 C58.65876671 125.18690895 58.65876671 125.18690895 58.65809631 124.18553162 C58.66017085 122.0426451 58.68343673 119.90056074 58.70703125 117.7578125 C58.712632 116.26423571 58.71689984 114.77065338 58.71989441 113.27706909 C58.73130559 109.36100844 58.76074009 105.44528576 58.79400635 101.52935791 C58.82478806 97.52743094 58.83841699 93.52544894 58.85351562 89.5234375 C58.88561388 81.6821372 58.93676447 73.84111074 59 66 C58.38691986 66.00888245 57.77383972 66.01776489 57.1421814 66.0269165 C50.75064433 66.11553682 44.35928233 66.17579531 37.96728516 66.21972656 C35.58309843 66.23981893 33.19896085 66.26709781 30.81494141 66.30175781 C27.38431662 66.35037859 23.95434445 66.37299312 20.5234375 66.390625 C19.46071625 66.41127014 18.397995 66.43191528 17.30307007 66.45318604 C11.35754626 66.45498127 7.61286249 66.16097907 3 62 C0.01109549 58.74562301 -0.36913303 56.60039718 -0.34057617 52.22167969 C-0.34034958 51.0607782 -0.34012299 49.89987671 -0.33988953 48.70379639 C-0.32440567 47.45576233 -0.30892181 46.20772827 -0.29296875 44.921875 C-0.28872391 43.64016418 -0.28447906 42.35845337 -0.28010559 41.03790283 C-0.26867648 37.63800365 -0.23922666 34.23849177 -0.20599365 30.83874512 C-0.17525063 27.36650837 -0.16159126 23.89420876 -0.14648438 20.421875 C-0.1143545 13.61440864 -0.06160276 6.80726281 0 0 Z " fill="#002443" transform="translate(289,309)"/>
<path d="M0 0 C9.4289421 5.12508627 16.38839841 12.56294235 20.359375 22.62890625 C23.21128176 32.75317525 21.78838848 42.87822805 17.421875 52.31640625 C11.77714849 62.06942484 3.23322562 68.55242469 -7.43359375 71.8984375 C-17.95413992 73.94889003 -27.89924919 72.35803736 -37.01171875 66.84375 C-44.8264084 61.26935924 -50.79148895 53.53629406 -53.13671875 44.140625 C-55.01920396 32.09605151 -53.85488015 21.89808548 -46.81640625 11.78515625 C-35.33826999 -2.18417793 -16.78036743 -7.29691735 0 0 Z " fill="#CF2F2C" transform="translate(521.578125,434.68359375)"/>
<path d="M0 0 C0.33 0 0.66 0 1 0 C1 17.49 1 34.98 1 53 C28.225 52.505 28.225 52.505 56 52 C53.69 48.7 51.38 45.4 49 42 C47.44975536 38.89951072 47.71007985 36.42105782 48 33 C49.79562405 30.24670979 51.05254922 28.47372539 54 27 C58.8265318 26.41748754 61.76772872 26.41327321 65.75 29.3125 C67.19178225 30.51210789 68.60541194 31.74583921 70 33 C70.9075 33.81210938 71.815 34.62421875 72.75 35.4609375 C75.32876394 37.79357767 77.87553282 40.15915096 80.41796875 42.53125 C82.5024677 44.46648853 84.60814759 46.37780998 86.71484375 48.28881836 C88.22448696 49.66425506 89.72264275 51.05127326 91.21875 52.44140625 C92.96059869 54.04380919 94.72816831 55.61916781 96.53125 57.15234375 C100.08122645 60.30857281 102.49653787 62.62445642 102.9375 67.5 C102.16235351 75.41465359 94.76546464 80.35224136 89.1015625 85.15234375 C86.79748895 87.1780441 84.65248842 89.31422567 82.5 91.5 C78.49413657 95.54709015 74.37015248 99.35096612 70 103 C69.34128906 103.58265625 68.68257813 104.1653125 68.00390625 104.765625 C64.71559863 107.50908633 62.17732846 109.38751402 57.8125 109.625 C53.63348276 108.93991521 51.91955649 108.0080279 49 105 C47.34161879 101.68323758 47.24146368 98.55601825 48 95 C49.54090444 92.51307112 51.25430801 90.37923169 53.17578125 88.17578125 C55.38090967 85.66107381 55.38090967 85.66107381 58 81 C38.86 81 19.72 81 0 81 C0 54.27 0 27.54 0 0 Z " fill="#045C2F" transform="translate(89,80)"/>
<path d="M0 0 C19.14 0 38.28 0 58 0 C57.67 0.99 57.34 1.98 57 3 C38.85 2.67 20.7 2.34 2 2 C2 20.81 2 39.62 2 59 C17.76578193 58.88156164 17.76578193 58.88156164 33.53125 58.72973633 C35.5208284 58.72096714 37.51041222 58.71332423 39.5 58.70703125 C40.51707031 58.69168335 41.53414062 58.67633545 42.58203125 58.66052246 C49.93670016 58.65783958 56.50253756 59.27992651 62 64.6875 C62.66 65.450625 63.32 66.21375 64 67 C63.67 67.66 63.34 68.32 63 69 C62.51789063 68.57847656 62.03578125 68.15695313 61.5390625 67.72265625 C60.90742188 67.17480469 60.27578125 66.62695312 59.625 66.0625 C58.99851563 65.51722656 58.37203125 64.97195312 57.7265625 64.41015625 C54.71906319 61.953805 52.7411002 61.8617481 48.92358398 61.81054688 C47.86586288 61.79382935 46.80814178 61.77711182 45.71836853 61.7598877 C44.57251785 61.74631226 43.42666718 61.73273682 42.24609375 61.71875 C40.48931053 61.69113586 40.48931053 61.69113586 38.69703674 61.66296387 C33.66799319 61.58404504 28.63881179 61.5163965 23.60961914 61.44775391 C19.94670681 61.39617359 16.2839152 61.33887142 12.62109375 61.28125 C11.47321884 61.26767456 10.32534393 61.25409912 9.14268494 61.2401123 C7.56083153 61.21503601 7.56083153 61.21503601 5.94702148 61.18945312 C5.0137352 61.17692505 4.08044891 61.16439697 3.11888123 61.15148926 C1 61 1 61 0 60 C-0.09386381 58.1281906 -0.11743804 56.2528194 -0.11352539 54.37866211 C-0.11344986 53.17749252 -0.11337433 51.97632294 -0.11329651 50.73875427 C-0.10813522 49.4314888 -0.10297394 48.12422333 -0.09765625 46.77734375 C-0.09579198 45.43355868 -0.09436812 44.08977293 -0.09336853 42.74598694 C-0.08954402 39.20317723 -0.07971432 35.6604083 -0.06866455 32.11761475 C-0.05844899 28.50484784 -0.0538159 24.89207416 -0.04882812 21.27929688 C-0.03862218 14.18616187 -0.01905051 7.09313893 0 0 Z " fill="#51B7AC" transform="translate(89,161)"/>
<path d="M0 0 C0.33 0 0.66 0 1 0 C1 29.7 1 59.4 1 90 C31.69 90 62.38 90 94 90 C94 81.09 94 72.18 94 63 C94.99 61.35 95.98 59.7 97 58 C97.33 58.66 97.66 59.32 98 60 C97.505 60.99 97.505 60.99 97 62 C96.67 71.9 96.34 81.8 96 92 C64.32 92 32.64 92 0 92 C0 61.64 0 31.28 0 0 Z " fill="#5EC9B7" transform="translate(309,428)"/>
<path d="M0 0 C1.68762851 1.6454378 3.3540349 3.31288577 5 5 C5 5.33 5 5.66 5 6 C-12.82 6 -30.64 6 -49 6 C-48.67 5.34 -48.34 4.68 -48 4 C-31.83 3.67 -15.66 3.34 1 3 C0.505 1.515 0.505 1.515 0 0 Z " fill="#5ABBB3" transform="translate(141,127)"/>
<path d="M0 0 C1.60875 0.2784375 1.60875 0.2784375 3.25 0.5625 C6.47268936 0.93848043 8.02646885 0.91493266 11 0 C11.33 0.33 11.66 0.66 12 1 C12.61875 0.835 13.2375 0.67 13.875 0.5 C16 0 16 0 19 1 C15.13367955 4.86632045 9.76966207 4.16128065 4.5625 4.1875 C2.64630859 4.20876953 2.64630859 4.20876953 0.69140625 4.23046875 C-2.90281971 4.00606734 -5.66196958 3.30528856 -9 2 C-6.10765685 1.17361624 -4.11257569 1 -1 1 C-1 1.66 -1 2.32 -1 3 C-0.34 2.67 0.32 2.34 1 2 C0.67 1.34 0.34 0.68 0 0 Z " fill="#C73731" transform="translate(500,501)"/>
<path d="M0 0 C0 3 0 3 -1.75 4.82421875 C-2.4925 5.43910156 -3.235 6.05398438 -4 6.6875 C-4.7425 7.31011719 -5.485 7.93273437 -6.25 8.57421875 C-6.8275 9.04472656 -7.405 9.51523437 -8 10 C-7.01 10.33 -6.02 10.66 -5 11 C-4.67 11.99 -4.34 12.98 -4 14 C-4.99 14 -5.98 14 -7 14 C-7 14.66 -7 15.32 -7 16 C-7.99 16.33 -8.98 16.66 -10 17 C-10 16.34 -10 15.68 -10 15 C-12.31 14.67 -14.62 14.34 -17 14 C-14.75628737 11.58479341 -12.40766766 9.88197446 -9.625 8.125 C-5.93278596 5.71572493 -2.96441982 3.25129916 0 0 Z " fill="#3DC0B4" transform="translate(535,492)"/>
<path d="M0 0 C3.39723907 0.41178655 5.80011188 1.37323733 8.6875 3.125 C9.780625 3.74375 10.87375 4.3625 12 5 C12.66 4.67 13.32 4.34 14 4 C16.125 4.4375 16.125 4.4375 18 5 C18 7.31 18 9.62 18 12 C17.18208984 11.43732422 17.18208984 11.43732422 16.34765625 10.86328125 C11.04694465 7.2660462 5.64951168 4.01841522 0 1 C0 0.67 0 0.34 0 0 Z " fill="#38C6B9" transform="translate(516,432)"/>
<path d="M0 0 C2.475 0.495 2.475 0.495 5 1 C4.01 1.495 4.01 1.495 3 2 C7.32893185 7.18419194 11.76564995 11.72706118 17 16 C12.95607032 16 11.99868382 14.51908749 9.0625 11.8125 C8.20785156 11.03519531 7.35320313 10.25789062 6.47265625 9.45703125 C4.08781445 7.08725954 1.97203603 4.72241633 0 2 C0 1.34 0 0.68 0 0 Z " fill="#34A498" transform="translate(24,560)"/>
<path d="M0 0 C2.10388569 -0.05402274 4.20816714 -0.09280256 6.3125 -0.125 C8.07013672 -0.15980469 8.07013672 -0.15980469 9.86328125 -0.1953125 C13 0 13 0 16 2 C13.69 2.66 11.38 3.32 9 4 C8.67 3.34 8.34 2.68 8 2 C6.10466658 1.53476937 6.10466658 1.53476937 3.9375 1.375 C2.638125 1.25125 1.33875 1.1275 0 1 C0 0.67 0 0.34 0 0 Z " fill="#DE1815" transform="translate(500,432)"/>
<path d="M0 0 C3.14958831 3.42346555 3.56179109 6.44262737 4 11 C2 8 2 8 2 5 C1.01 5.33 0.02 5.66 -1 6 C-0.67 4.02 -0.34 2.04 0 0 Z " fill="#C43635" transform="translate(536,451)"/>
<path d="M0 0 C1.75098126 2.62647188 3.38731308 5.28775382 5 8 C2.5625 7.3125 2.5625 7.3125 0 6 C-0.875 3.4375 -0.875 3.4375 -1 1 C-0.67 0.67 -0.34 0.34 0 0 Z " fill="#58C0B0" transform="translate(348,442)"/>
<path d="M0 0 C0.33 0.66 0.66 1.32 1 2 C-1.39509338 4.89932357 -3.31245243 5.50168276 -7 6 C-2.25 1.125 -2.25 1.125 0 0 Z " fill="#C53530" transform="translate(486,439)"/>
</svg>
